# xmcd
#
# Track frame offsets:
#	150
#	12907
#	26765
#	43372
#	61711
#	74084
#	96414
#	113011
#	130090
#	152175
#	166184
#	178929
#	195804
#	214323
#
# Disc length: 3021 seconds
# Revision: 1
# Processed by: cddbd v1.5.2PL0 Copyright (c) Steve Scherf et al.
# Submitted via: dBpowerAMP V12.0
#
DISCID=c50bcb0e
DTITLE=Michelle Douglas - Country and Western
DYEAR=2017
DGENRE=Country
TTITLE0=Crazy
TTITLE1=Talking In Your Sleep
TTITLE2=Blanket On The Ground
TTITLE3=House That Built Me
TTITLE4=Brown Eyes Blue
TTITLE5=Black Velvet
TTITLE6=Girl Put Your Records On
TTITLE7=Strawberry Wine
TTITLE8=Wind Beneath My Wings
TTITLE9=Here Comes Again
TTITLE10=Son of a Preacher Man
TTITLE11=Mercy
TTITLE12=Simply The Best
TTITLE13=Rockin Around The Xmas Tree
EXTD=
EXTT0=
EXTT1=
EXTT2=
EXTT3=
EXTT4=
EXTT5=
EXTT6=
EXTT7=
EXTT8=
EXTT9=
EXTT10=
EXTT11=
EXTT12=
EXTT13=
PLAYORDER=
